# xmcd
#
# Track frame offsets:
#	150
#	26355
#	47137
#	58975
#	73440
#	91427
#	113807
#	132705
#	152885
#	168562
#
# Disc length: 2400 seconds
#
# Revision: 0
# Processed by: cddbd v1.5PL3 Copyright (c) Steve Scherf et al.
# Submitted via: dBpowerAMP V4.0
#
DISCID=97095e0a
DTITLE=Albertina Walker - Gospel Greats
DYEAR=1900
DGENRE=
TTITLE0=He keeps on blessing me
TTITLE1=I can go to God in prayer 
TTITLE2=It's good to know that Lord is on your side
TTITLE3=Your grace 
TTITLE4=Lord keep me day by day
TTITLE5=Wait on the Lord
TTITLE6=My Best friend
TTITLE7=working on a building
TTITLE8=Life is like a mountain railroad
TTITLE9=I've got a feeling
EXTD=Gospel Greats
EXTT0=
EXTT1=
EXTT2=
EXTT3=
EXTT4=
EXTT5=
EXTT6=
EXTT7=
EXTT8=
EXTT9=
PLAYORDER=
